<svg width="22" height="22" viewBox="0 0 22 22" fill="none" xmlns="http://www.w3.org/2000/svg">
<rect width="22" height="22" rx="11" fill="white"/>
<g clip-path="url(#clip0_97_139)">
<path d="M15.0262 6.79603L9.80861 6.56575C9.60616 6.54106 9.42201 6.68517 9.39735 6.88764C9.37267 7.09009 9.51677 7.27424 9.71924 7.2989C9.73812 7.3012 9.75716 7.30206 9.77615 7.30141L14.104 7.49504L3.31996 17.3675C3.16954 17.5052 3.15923 17.7388 3.29696 17.8892C3.43469 18.0397 3.66828 18.05 3.8187 17.9123L14.6028 8.03984L14.4119 12.3652C14.3872 12.5677 14.5313 12.7518 14.7338 12.7765C14.9362 12.8011 15.1204 12.657 15.145 12.4546C15.1473 12.4357 15.1482 12.4167 15.1475 12.3977L15.3778 7.18006C15.3862 6.97718 15.2291 6.80559 15.0262 6.79603Z" fill="#6F8F7D"/>
</g>
<defs>
<clipPath id="clip0_97_139">
<rect width="11.7911" height="10" fill="white" transform="translate(3 10.9619) rotate(-42.473)"/>
</clipPath>
</defs>
</svg>
