<svg width="40" height="40" viewBox="0 0 40 40" fill="none" xmlns="http://www.w3.org/2000/svg">
<path d="M33.333 26.25C34.0234 26.25 34.583 26.8096 34.583 27.5C34.583 28.5612 34.5294 29.4987 34.3545 30.2949C34.1764 31.1052 33.8565 31.8476 33.2686 32.4355C32.6806 33.0234 31.9383 33.3435 31.1279 33.5215C30.3317 33.6964 29.3942 33.75 28.333 33.75H11.667C10.6058 33.75 9.66831 33.6964 8.87207 33.5215C8.06174 33.3435 7.31943 33.0234 6.73145 32.4355C6.14352 31.8476 5.82355 31.1052 5.64551 30.2949C5.47059 29.4987 5.41699 28.5612 5.41699 27.5C5.41699 26.8096 5.97664 26.25 6.66699 26.25C7.3572 26.2502 7.91699 26.8098 7.91699 27.5C7.91699 28.5069 7.97075 29.2288 8.08691 29.7578C8.19994 30.2723 8.35421 30.522 8.49902 30.667C8.6439 30.8119 8.89354 30.966 9.4082 31.0791C9.93726 31.1953 10.6599 31.25 11.667 31.25H28.333C29.3401 31.25 30.0627 31.1953 30.5918 31.0791C31.1065 30.966 31.3561 30.8119 31.501 30.667C31.6458 30.522 31.8001 30.2723 31.9131 29.7578C32.0292 29.2288 32.083 28.5069 32.083 27.5C32.083 26.8098 32.6428 26.2502 33.333 26.25ZM20 6.25C20.6904 6.25 21.25 6.80964 21.25 7.5V21.6035C21.2534 21.5996 21.2564 21.5948 21.2598 21.5908C21.6109 21.1764 21.9549 20.7386 22.2764 20.3291C22.3013 20.2973 22.3269 20.2658 22.3516 20.2344C22.6719 19.8266 23.0088 19.3982 23.2705 19.1289C23.7517 18.6339 24.5431 18.6224 25.0381 19.1035C25.533 19.5846 25.5443 20.376 25.0635 20.8711C24.9157 21.0231 24.6725 21.3261 24.3174 21.7783C24.2916 21.8111 24.2648 21.8451 24.2383 21.8789C23.9216 22.2824 23.5497 22.7553 23.167 23.207C22.7567 23.6913 22.298 24.1949 21.8389 24.5859C21.6088 24.7819 21.3492 24.9747 21.0703 25.124C20.8012 25.268 20.4305 25.417 20 25.417C19.5695 25.417 19.1988 25.268 18.9297 25.124C18.6508 24.9747 18.3912 24.7819 18.1611 24.5859C17.702 24.1949 17.2433 23.6913 16.833 23.207C16.4503 22.7553 16.0784 22.2824 15.7617 21.8789C15.7352 21.8451 15.7084 21.8111 15.6826 21.7783C15.3275 21.3261 15.0843 21.0231 14.9365 20.8711C14.4557 20.376 14.467 19.5846 14.9619 19.1035C15.4569 18.6224 16.2483 18.6339 16.7295 19.1289C16.9912 19.3982 17.3281 19.8266 17.6484 20.2344C17.6731 20.2658 17.6987 20.2973 17.7236 20.3291C18.0451 20.7386 18.3891 21.1764 18.7402 21.5908C18.7436 21.5948 18.7466 21.5996 18.75 21.6035V7.5C18.75 6.80964 19.3096 6.25 20 6.25Z" fill="#6F8F7D"/>
</svg>
