<svg width="18" height="15" viewBox="0 0 18 15" fill="none" xmlns="http://www.w3.org/2000/svg">
<path d="M14.625 0H3.375C2.4802 0.00099257 1.62233 0.356891 0.989611 0.989611C0.356891 1.62233 0.00099257 2.4802 0 3.375L0 11.625C0 13.4858 1.51425 15 3.375 15H14.625C16.4858 15 18 13.4858 18 11.625V3.375C18 1.51425 16.4858 0 14.625 0ZM3.375 0.75H14.625C15.011 0.751424 15.392 0.838469 15.7403 1.00486C16.0887 1.17126 16.3958 1.41286 16.6395 1.71225L10.8713 7.48125C10.625 7.72627 10.3328 7.92029 10.0115 8.05221C9.69011 8.18412 9.34588 8.25134 8.9985 8.25C8.313 8.23725 7.629 7.98 7.1295 7.48125L1.3605 1.71225C1.60419 1.41282 1.91128 1.17119 2.25964 1.00479C2.608 0.838393 2.98894 0.751371 3.375 0.75ZM17.25 11.625C17.25 13.0725 16.0725 14.25 14.625 14.25H3.375C1.9275 14.25 0.75 13.0725 0.75 11.625V3.375C0.75 3.01725 0.82275 2.67675 0.95325 2.3655L6.59925 8.0115C7.2375 8.64975 8.08425 9 8.982 9C9.87975 9 10.7632 8.64975 11.4015 8.0115L17.0475 2.3655C17.178 2.67675 17.2507 3.01725 17.2507 3.375L17.25 11.625Z" fill="white"/>
</svg>
