<svg width="22" height="19" viewBox="0 0 22 19" fill="none" xmlns="http://www.w3.org/2000/svg">
<path fill-rule="evenodd" clip-rule="evenodd" d="M13.67 0.0368025C11.717 -0.0122675 9.783 -0.0122675 7.82999 0.0368025L7.77182 0.0382623C6.247 0.0765423 5.02002 0.107352 4.0367 0.278602C3.0072 0.457892 2.17048 0.801772 1.46362 1.51132C0.759709 2.2179 0.417639 3.04259 0.241759 4.0554C0.0742888 5.01977 0.0487787 6.2168 0.0171887 7.69963L0.0159288 7.75843C-0.0053112 8.75473 -0.0053113 9.74523 0.0159387 10.7416L0.0171887 10.8003C0.0487887 12.2832 0.0742888 13.4802 0.241759 14.4446C0.417639 15.4574 0.759719 16.2821 1.46362 16.9886C2.17048 17.6982 3.0072 18.0421 4.0367 18.2214C5.02001 18.3926 6.24697 18.4234 7.77177 18.4617L7.82999 18.4632C9.783 18.5122 11.717 18.5122 13.67 18.4632L13.7282 18.4617C15.253 18.4234 16.48 18.3926 17.4633 18.2214C18.4928 18.0421 19.3295 17.6982 20.0364 16.9886C20.7403 16.2821 21.0824 15.4574 21.2582 14.4446C21.4257 13.4802 21.4512 12.2832 21.4828 10.8003L21.4841 10.7416C21.5053 9.74523 21.5053 8.75473 21.4841 7.75843L21.4828 7.69963C21.4512 6.21682 21.4257 5.01979 21.2582 4.05542C21.0824 3.04261 20.7403 2.21792 20.0364 1.51134C19.3295 0.801793 18.4928 0.457912 17.4633 0.278622C16.48 0.107362 15.253 0.0765523 13.7282 0.0382724L13.67 0.0368025ZM6.13182 5.10452C5.77527 4.89371 5.31533 5.01186 5.10452 5.36841C4.89371 5.72497 5.01186 6.18491 5.36841 6.39572L8.31043 8.13513C9.1813 8.65003 9.9327 9.00013 10.7501 9.00013C11.5675 9.00013 12.319 8.65003 13.1898 8.13513L16.1318 6.39572C16.4884 6.18491 16.6065 5.72497 16.3957 5.36841C16.1849 5.01186 15.725 4.89371 15.3684 5.10452L12.4264 6.84395C11.582 7.34313 11.1331 7.50013 10.7501 7.50013C10.3671 7.50013 9.9182 7.34313 9.0738 6.84395L6.13182 5.10452Z" fill="#6F8F7D"/>
</svg>
