<svg width="19" height="22" viewBox="0 0 19 22" fill="none" xmlns="http://www.w3.org/2000/svg">
<path d="M9.50112 0C4.26209 0 0 4.26209 0 9.50112C0 15.071 5.1742 18.4891 8.59795 20.7504L9.19038 21.1439C9.28427 21.2065 9.39268 21.2378 9.49999 21.2378C9.6073 21.2378 9.71573 21.2065 9.80963 21.1439L10.402 20.7504C13.8258 18.4891 19 15.071 19 9.50112C19.0022 4.26209 14.7401 0 9.50112 0ZM9.50112 12.2956C7.95747 12.2956 6.70667 11.0448 6.70667 9.50112C6.70667 7.95746 7.95747 6.70667 9.50112 6.70667C11.0448 6.70667 12.2956 7.95746 12.2956 9.50112C12.2956 11.0448 11.0448 12.2956 9.50112 12.2956Z" fill="#6F8F7D"/>
</svg>
