<svg width="15" height="18" viewBox="0 0 15 18" fill="none" xmlns="http://www.w3.org/2000/svg">
<path d="M7.5 18C6.58725 18 5.61525 17.517 4.96275 16.7407C1.7625 12.9337 0 9.65175 0 7.5C0 3.3645 3.3645 0 7.5 0C11.6355 0 15 3.3645 15 7.5C15 9.65175 13.2375 12.9337 10.0373 16.7407C9.3855 17.517 8.41275 18 7.5 18ZM7.5 0.75C3.7785 0.75 0.75 3.7785 0.75 7.5C0.75 9.44625 2.49525 12.639 5.53725 16.2585C6.04275 16.8608 6.81375 17.2493 7.5 17.2493C8.18625 17.2493 8.9565 16.86 9.46275 16.2585C12.5055 12.639 14.25 9.44625 14.25 7.5C14.25 3.77775 11.2223 0.75 7.5 0.75Z" fill="white"/>
<path d="M7.5 10.5C5.8455 10.5 4.5 9.1545 4.5 7.5C4.5 5.8455 5.8455 4.5 7.5 4.5C9.1545 4.5 10.5 5.8455 10.5 7.5C10.5 9.1545 9.1545 10.5 7.5 10.5ZM7.5 5.25C6.2595 5.25 5.25 6.2595 5.25 7.5C5.25 8.7405 6.2595 9.75 7.5 9.75C8.7405 9.75 9.75 8.7405 9.75 7.5C9.75 6.2595 8.7405 5.25 7.5 5.25Z" fill="white"/>
</svg>
