<svg width="18" height="18" viewBox="0 0 18 18" fill="none" xmlns="http://www.w3.org/2000/svg">
<path d="M17.625 8.25C17.5255 8.25 17.4302 8.21049 17.3598 8.14017C17.2895 8.06984 17.25 7.97446 17.25 7.875C17.25 3.9465 14.0535 0.75 10.125 0.75C10.0255 0.75 9.93016 0.710491 9.85983 0.640165C9.78951 0.569839 9.75 0.474456 9.75 0.375C9.75 0.275544 9.78951 0.180161 9.85983 0.109835C9.93016 0.0395088 10.0255 0 10.125 0C14.4675 0 18 3.5325 18 7.875C18 7.97446 17.9605 8.06984 17.8902 8.14017C17.8198 8.21049 17.7245 8.25 17.625 8.25ZM15 7.875C15 5.187 12.813 3 10.125 3C10.0255 3 9.93016 3.03951 9.85983 3.10984C9.78951 3.18016 9.75 3.27554 9.75 3.375C9.75 3.47446 9.78951 3.56984 9.85983 3.64016C9.93016 3.71049 10.0255 3.75 10.125 3.75C12.3997 3.75 14.25 5.60025 14.25 7.875C14.25 7.97446 14.2895 8.06984 14.3598 8.14017C14.4302 8.21049 14.5255 8.25 14.625 8.25C14.7245 8.25 14.8198 8.21049 14.8902 8.14017C14.9605 8.06984 15 7.97446 15 7.875ZM16.6755 16.7033L17.409 15.8595C17.79 15.4785 18 14.9715 18 14.433C18 13.8945 17.79 13.3868 17.3722 12.9742L15.5377 11.5695C15.1592 11.192 14.6466 10.9799 14.1121 10.9795C13.5775 10.9791 13.0646 11.1904 12.6855 11.5673L11.5365 12.6877C8.7765 11.5635 6.528 9.31275 5.316 6.4605L6.432 5.31675C7.21875 4.53 7.21875 3.24975 6.46425 2.49975L4.995 0.5925C4.23225 -0.17025 2.88525 -0.15225 2.16 0.57525L1.2795 1.34325C0.45375 2.1645 0 3.27975 0 4.482C0 10.2937 7.70625 18 13.518 18C14.7203 18 15.8347 17.5462 16.6755 16.7033ZM4.43175 1.0845L5.901 2.99175C6.13876 3.23052 6.27199 3.55392 6.27143 3.89087C6.27087 4.22783 6.13655 4.55078 5.898 4.78875L4.6065 6.11325C4.55576 6.16537 4.52124 6.2311 4.50713 6.30246C4.49301 6.37382 4.49992 6.44774 4.527 6.51525C5.82375 9.744 8.36175 12.2812 11.4915 13.4752C11.5583 13.5008 11.6309 13.5068 11.7009 13.4924C11.771 13.4781 11.8354 13.444 11.8868 13.3942L13.2113 12.1027L13.2142 12.099C13.6935 11.619 14.4923 11.5882 15.0443 12.1312L16.8787 13.536C17.373 14.0303 17.373 14.8343 16.8615 15.348L16.1273 16.1917C15.4462 16.8743 14.5192 17.25 13.518 17.25C8.148 17.25 0.75 9.852 0.75 4.482C0.75 3.48075 1.12575 2.55375 1.79025 1.89L2.6715 1.12125C2.9235 0.86925 3.25575 0.74625 3.58275 0.74625C3.89965 0.742606 4.20513 0.864473 4.4325 1.08525L4.43175 1.0845Z" fill="white"/>
</svg>
