<svg width="18" height="18" viewBox="0 0 18 18" fill="none" xmlns="http://www.w3.org/2000/svg">
<path d="M14.6252 11.1733L17.2682 12.7493C17.8142 13.0753 18.0961 13.7093 17.9711 14.3333C17.4601 16.8923 14.8902 18.5323 12.3732 17.8413C6.4342 16.2113 1.79509 11.5863 0.159086 5.63427C-0.532914 3.11627 1.10519 0.544245 3.66519 0.0322451L3.68204 0.0292544C4.30704 -0.0957456 4.94419 0.187255 5.26919 0.736255L6.83218 3.37526C7.38818 4.31426 7.11203 5.52325 6.20303 6.12725L4.54214 7.23226C5.71414 10.0393 7.95408 12.2883 10.7531 13.4583L11.8681 11.7933C12.4771 10.8863 13.6872 10.6143 14.6252 11.1733Z" fill="#6F8F7D"/>
</svg>
