<svg width="16" height="19" viewBox="0 0 16 19" fill="none" xmlns="http://www.w3.org/2000/svg">
<path d="M10.3223 2.74555L10.1482 2.63782C8.74729 1.77113 7.57184 1.04392 6.59668 0.592278C5.60774 0.134257 4.48009 -0.211384 3.3041 0.151482C2.52687 0.391305 1.83637 0.841408 1.29106 1.44049C0.497686 2.3121 0.236186 3.45124 0.11786 4.58979C-5.86748e-05 5.72442 -3.17251e-05 7.19024 1.08985e-06 8.97525V9.15862C-3.17251e-05 10.9436 -5.86748e-05 12.4095 0.11786 13.5441C0.236186 14.6827 0.497686 15.8218 1.29106 16.6934C1.83637 17.2925 2.52687 17.7426 3.3041 17.9824C4.48009 18.3453 5.60774 17.9997 6.59668 17.5416C7.57184 17.09 8.74728 16.3628 10.1482 15.4961L10.3223 15.3884C11.7766 14.4888 12.9892 13.7387 13.8677 13.0399C14.7722 12.3205 15.5688 11.4702 15.8552 10.285C16.0483 9.48612 16.0483 8.64779 15.8552 7.84887C15.5688 6.66374 14.7722 5.81344 13.8677 5.09402C12.9892 4.39518 11.7767 3.64516 10.3223 2.74555Z" fill="white"/>
</svg>
