<svg width="424" height="28" viewBox="0 0 424 28" fill="none" xmlns="http://www.w3.org/2000/svg">
<g clip-path="url(#clip0_469_706)">
<path d="M4.85501 10.4756C4.85501 10.0531 4.51256 9.71069 4.09012 9.71069C3.66768 9.71069 3.32523 10.0531 3.32523 10.4756V17.5246C3.32523 17.947 3.66768 18.2895 4.09012 18.2895C4.51256 18.2895 4.85501 17.947 4.85501 17.5246V10.4756Z" fill="white"/>
<path d="M30.8609 8.75977C30.8609 8.33733 30.5184 7.99487 30.096 7.99487C29.6735 7.99487 29.3311 8.33733 29.3311 8.75977V20.0981C29.3311 20.5206 29.6735 20.863 30.096 20.863C30.5184 20.863 30.8609 20.5206 30.8609 20.0981V8.75977Z" fill="white"/>
<path d="M56.8667 10.4756C56.8667 10.0531 56.5243 9.71069 56.1018 9.71069C55.6794 9.71069 55.3369 10.0531 55.3369 10.4756V17.5246C55.3369 17.947 55.6794 18.2895 56.1018 18.2895C56.5243 18.2895 56.8667 17.947 56.8667 17.5246V10.4756Z" fill="white"/>
<path d="M82.8706 10.4756C82.8706 10.0531 82.5282 9.71069 82.1057 9.71069C81.6833 9.71069 81.3409 10.0531 81.3409 10.4756V17.5246C81.3409 17.947 81.6833 18.2895 82.1057 18.2895C82.5282 18.2895 82.8706 17.947 82.8706 17.5246V10.4756Z" fill="#CFD0D1"/>
<path d="M10.2085 6.18628C10.2085 5.76384 9.86607 5.42139 9.44364 5.42139C9.0212 5.42139 8.67874 5.76384 8.67874 6.18628V21.814C8.67874 22.2364 9.0212 22.5789 9.44364 22.5789C9.86607 22.5789 10.2085 22.2364 10.2085 21.814V6.18628Z" fill="white"/>
<path d="M36.2146 6.18628C36.2146 5.76384 35.8722 5.42139 35.4497 5.42139C35.0273 5.42139 34.6848 5.76384 34.6848 6.18628V21.814C34.6848 22.2364 35.0273 22.5789 35.4497 22.5789C35.8722 22.5789 36.2146 22.2364 36.2146 21.814V6.18628Z" fill="white"/>
<path d="M62.2222 6.18628C62.2222 5.76384 61.8797 5.42139 61.4573 5.42139C61.0349 5.42139 60.6924 5.76384 60.6924 6.18628V21.814C60.6924 22.2364 61.0349 22.5789 61.4573 22.5789C61.8797 22.5789 62.2222 22.2364 62.2222 21.814V6.18628Z" fill="white"/>
<path d="M88.2281 6.18628C88.2281 5.76384 87.8856 5.42139 87.4632 5.42139C87.0407 5.42139 86.6983 5.76384 86.6983 6.18628V21.814C86.6983 22.2364 87.0407 22.5789 87.4632 22.5789C87.8856 22.5789 88.2281 22.2364 88.2281 21.814V6.18628Z" fill="#CFD0D1"/>
<path d="M15.564 1.89673C15.564 1.47429 15.2215 1.13184 14.7991 1.13184C14.3767 1.13184 14.0342 1.47429 14.0342 1.89673V26.1032C14.0342 26.5257 14.3767 26.8681 14.7991 26.8681C15.2215 26.8681 15.564 26.5257 15.564 26.1032V1.89673Z" fill="white"/>
<path d="M41.5699 1.89673C41.5699 1.47429 41.2275 1.13184 40.805 1.13184C40.3826 1.13184 40.0401 1.47429 40.0401 1.89673V26.1032C40.0401 26.5257 40.3826 26.8681 40.805 26.8681C41.2275 26.8681 41.5699 26.5257 41.5699 26.1032V1.89673Z" fill="white"/>
<path d="M67.5738 1.89673C67.5738 1.47429 67.2313 1.13184 66.8089 1.13184C66.3864 1.13184 66.044 1.47429 66.044 1.89673V26.1032C66.044 26.5257 66.3864 26.8681 66.8089 26.8681C67.2313 26.8681 67.5738 26.5257 67.5738 26.1032V1.89673Z" fill="#CFD0D1"/>
<path d="M93.5835 1.89673C93.5835 1.47429 93.2411 1.13184 92.8186 1.13184C92.3962 1.13184 92.0537 1.47429 92.0537 1.89673V26.1032C92.0537 26.5257 92.3962 26.8681 92.8186 26.8681C93.2411 26.8681 93.5835 26.5257 93.5835 26.1032V1.89673Z" fill="#CFD0D1"/>
<path d="M20.9175 6.18628C20.9175 5.76384 20.5751 5.42139 20.1526 5.42139C19.7302 5.42139 19.3877 5.76384 19.3877 6.18628V21.814C19.3877 22.2364 19.7302 22.5789 20.1526 22.5789C20.5751 22.5789 20.9175 22.2364 20.9175 21.814V6.18628Z" fill="white"/>
<path d="M46.9233 6.18628C46.9233 5.76384 46.5808 5.42139 46.1584 5.42139C45.7359 5.42139 45.3935 5.76384 45.3935 6.18628V21.814C45.3935 22.2364 45.7359 22.5789 46.1584 22.5789C46.5808 22.5789 46.9233 22.2364 46.9233 21.814V6.18628Z" fill="white"/>
<path d="M72.9292 6.18628C72.9292 5.76384 72.5868 5.42139 72.1643 5.42139C71.7419 5.42139 71.3994 5.76384 71.3994 6.18628V21.814C71.3994 22.2364 71.7419 22.5789 72.1643 22.5789C72.5868 22.5789 72.9292 22.2364 72.9292 21.814V6.18628Z" fill="#CFD0D1"/>
<path d="M98.937 6.18628C98.937 5.76384 98.5946 5.42139 98.1722 5.42139C97.7497 5.42139 97.4073 5.76384 97.4073 6.18628V21.814C97.4073 22.2364 97.7497 22.5789 98.1722 22.5789C98.5946 22.5789 98.937 22.2364 98.937 21.814V6.18628Z" fill="#CFD0D1"/>
<path d="M26.273 10.4756C26.273 10.0531 25.9305 9.71069 25.5081 9.71069C25.0857 9.71069 24.7432 10.0531 24.7432 10.4756V17.5246C24.7432 17.947 25.0857 18.2895 25.5081 18.2895C25.9305 18.2895 26.273 17.947 26.273 17.5246V10.4756Z" fill="white"/>
<path d="M52.2769 8.75977C52.2769 8.33733 51.9344 7.99487 51.512 7.99487C51.0896 7.99487 50.7471 8.33733 50.7471 8.75977V20.0981C50.7471 20.5206 51.0896 20.863 51.512 20.863C51.9344 20.863 52.2769 20.5206 52.2769 20.0981V8.75977Z" fill="white"/>
<path d="M78.2847 10.4756C78.2847 10.0531 77.9422 9.71069 77.5198 9.71069C77.0974 9.71069 76.7549 10.0531 76.7549 10.4756V17.5246C76.7549 17.947 77.0974 18.2895 77.5198 18.2895C77.9422 18.2895 78.2847 17.947 78.2847 17.5246V10.4756Z" fill="#CFD0D1"/>
<path d="M104.29 10.4756C104.29 10.0531 103.948 9.71069 103.526 9.71069C103.103 9.71069 102.761 10.0531 102.761 10.4756V17.5246C102.761 17.947 103.103 18.2895 103.526 18.2895C103.948 18.2895 104.29 17.947 104.29 17.5246V10.4756Z" fill="#CFD0D1"/>
</g>
<path d="M110.145 10.3335C110.145 9.91106 109.803 9.5686 109.38 9.5686C108.958 9.5686 108.615 9.91106 108.615 10.3335V17.3825C108.615 17.8049 108.958 18.1474 109.38 18.1474C109.803 18.1474 110.145 17.8049 110.145 17.3825V10.3335Z" fill="white"/>
<path d="M136.151 8.61768C136.151 8.19524 135.808 7.85278 135.386 7.85278C134.964 7.85278 134.621 8.19524 134.621 8.61768V19.956C134.621 20.3785 134.964 20.7209 135.386 20.7209C135.808 20.7209 136.151 20.3785 136.151 19.956V8.61768Z" fill="white"/>
<path d="M162.157 10.3335C162.157 9.91106 161.814 9.5686 161.392 9.5686C160.969 9.5686 160.627 9.91106 160.627 10.3335V17.3825C160.627 17.8049 160.969 18.1474 161.392 18.1474C161.814 18.1474 162.157 17.8049 162.157 17.3825V10.3335Z" fill="white"/>
<path d="M188.161 10.3335C188.161 9.91106 187.818 9.5686 187.396 9.5686C186.973 9.5686 186.631 9.91106 186.631 10.3335V17.3825C186.631 17.8049 186.973 18.1474 187.396 18.1474C187.818 18.1474 188.161 17.8049 188.161 17.3825V10.3335Z" fill="#CFD0D1"/>
<path d="M115.499 6.04419C115.499 5.62175 115.156 5.2793 114.734 5.2793C114.311 5.2793 113.969 5.62175 113.969 6.04419V21.6719C113.969 22.0943 114.311 22.4368 114.734 22.4368C115.156 22.4368 115.499 22.0943 115.499 21.6719V6.04419Z" fill="white"/>
<path d="M141.505 6.04419C141.505 5.62175 141.162 5.2793 140.74 5.2793C140.317 5.2793 139.975 5.62175 139.975 6.04419V21.6719C139.975 22.0943 140.317 22.4368 140.74 22.4368C141.162 22.4368 141.505 22.0943 141.505 21.6719V6.04419Z" fill="white"/>
<path d="M167.512 6.04419C167.512 5.62175 167.17 5.2793 166.747 5.2793C166.325 5.2793 165.982 5.62175 165.982 6.04419V21.6719C165.982 22.0943 166.325 22.4368 166.747 22.4368C167.17 22.4368 167.512 22.0943 167.512 21.6719V6.04419Z" fill="white"/>
<path d="M193.518 6.04419C193.518 5.62175 193.176 5.2793 192.753 5.2793C192.331 5.2793 191.988 5.62175 191.988 6.04419V21.6719C191.988 22.0943 192.331 22.4368 192.753 22.4368C193.176 22.4368 193.518 22.0943 193.518 21.6719V6.04419Z" fill="#CFD0D1"/>
<path d="M120.854 1.75464C120.854 1.3322 120.512 0.989746 120.089 0.989746C119.667 0.989746 119.324 1.3322 119.324 1.75464V25.9611C119.324 26.3836 119.667 26.726 120.089 26.726C120.512 26.726 120.854 26.3836 120.854 25.9611V1.75464Z" fill="white"/>
<path d="M146.86 1.75464C146.86 1.3322 146.517 0.989746 146.095 0.989746C145.673 0.989746 145.33 1.3322 145.33 1.75464V25.9611C145.33 26.3836 145.673 26.726 146.095 26.726C146.517 26.726 146.86 26.3836 146.86 25.9611V1.75464Z" fill="white"/>
<path d="M172.864 1.75464C172.864 1.3322 172.521 0.989746 172.099 0.989746C171.676 0.989746 171.334 1.3322 171.334 1.75464V25.9611C171.334 26.3836 171.676 26.726 172.099 26.726C172.521 26.726 172.864 26.3836 172.864 25.9611V1.75464Z" fill="#CFD0D1"/>
<path d="M198.874 1.75464C198.874 1.3322 198.531 0.989746 198.109 0.989746C197.686 0.989746 197.344 1.3322 197.344 1.75464V25.9611C197.344 26.3836 197.686 26.726 198.109 26.726C198.531 26.726 198.874 26.3836 198.874 25.9611V1.75464Z" fill="#CFD0D1"/>
<path d="M126.208 6.04419C126.208 5.62175 125.865 5.2793 125.443 5.2793C125.02 5.2793 124.678 5.62175 124.678 6.04419V21.6719C124.678 22.0943 125.02 22.4368 125.443 22.4368C125.865 22.4368 126.208 22.0943 126.208 21.6719V6.04419Z" fill="white"/>
<path d="M152.213 6.04419C152.213 5.62175 151.871 5.2793 151.448 5.2793C151.026 5.2793 150.683 5.62175 150.683 6.04419V21.6719C150.683 22.0943 151.026 22.4368 151.448 22.4368C151.871 22.4368 152.213 22.0943 152.213 21.6719V6.04419Z" fill="white"/>
<path d="M178.219 6.04419C178.219 5.62175 177.877 5.2793 177.454 5.2793C177.032 5.2793 176.689 5.62175 176.689 6.04419V21.6719C176.689 22.0943 177.032 22.4368 177.454 22.4368C177.877 22.4368 178.219 22.0943 178.219 21.6719V6.04419Z" fill="#CFD0D1"/>
<path d="M204.227 6.04419C204.227 5.62175 203.885 5.2793 203.462 5.2793C203.04 5.2793 202.697 5.62175 202.697 6.04419V21.6719C202.697 22.0943 203.04 22.4368 203.462 22.4368C203.885 22.4368 204.227 22.0943 204.227 21.6719V6.04419Z" fill="#CFD0D1"/>
<path d="M131.563 10.3335C131.563 9.91106 131.221 9.5686 130.798 9.5686C130.376 9.5686 130.033 9.91106 130.033 10.3335V17.3825C130.033 17.8049 130.376 18.1474 130.798 18.1474C131.221 18.1474 131.563 17.8049 131.563 17.3825V10.3335Z" fill="white"/>
<path d="M157.567 8.61768C157.567 8.19524 157.224 7.85278 156.802 7.85278C156.38 7.85278 156.037 8.19524 156.037 8.61768V19.956C156.037 20.3785 156.38 20.7209 156.802 20.7209C157.224 20.7209 157.567 20.3785 157.567 19.956V8.61768Z" fill="white"/>
<path d="M183.575 10.3335C183.575 9.91106 183.232 9.5686 182.81 9.5686C182.387 9.5686 182.045 9.91106 182.045 10.3335V17.3825C182.045 17.8049 182.387 18.1474 182.81 18.1474C183.232 18.1474 183.575 17.8049 183.575 17.3825V10.3335Z" fill="#CFD0D1"/>
<path d="M209.58 10.3335C209.58 9.91106 209.238 9.5686 208.816 9.5686C208.393 9.5686 208.051 9.91106 208.051 10.3335V17.3825C208.051 17.8049 208.393 18.1474 208.816 18.1474C209.238 18.1474 209.58 17.8049 209.58 17.3825V10.3335Z" fill="#CFD0D1"/>
<path d="M213.145 10.3335C213.145 9.91106 212.803 9.5686 212.38 9.5686C211.958 9.5686 211.615 9.91106 211.615 10.3335V17.3825C211.615 17.8049 211.958 18.1474 212.38 18.1474C212.803 18.1474 213.145 17.8049 213.145 17.3825V10.3335Z" fill="white"/>
<path d="M239.151 8.61768C239.151 8.19524 238.808 7.85278 238.386 7.85278C237.964 7.85278 237.621 8.19524 237.621 8.61768V19.956C237.621 20.3785 237.964 20.7209 238.386 20.7209C238.808 20.7209 239.151 20.3785 239.151 19.956V8.61768Z" fill="white"/>
<path d="M265.157 10.3335C265.157 9.91106 264.814 9.5686 264.392 9.5686C263.969 9.5686 263.627 9.91106 263.627 10.3335V17.3825C263.627 17.8049 263.969 18.1474 264.392 18.1474C264.814 18.1474 265.157 17.8049 265.157 17.3825V10.3335Z" fill="white"/>
<path d="M291.161 10.3335C291.161 9.91106 290.818 9.5686 290.396 9.5686C289.973 9.5686 289.631 9.91106 289.631 10.3335V17.3825C289.631 17.8049 289.973 18.1474 290.396 18.1474C290.818 18.1474 291.161 17.8049 291.161 17.3825V10.3335Z" fill="#CFD0D1"/>
<path d="M218.499 6.04419C218.499 5.62175 218.156 5.2793 217.734 5.2793C217.311 5.2793 216.969 5.62175 216.969 6.04419V21.6719C216.969 22.0943 217.311 22.4368 217.734 22.4368C218.156 22.4368 218.499 22.0943 218.499 21.6719V6.04419Z" fill="white"/>
<path d="M244.505 6.04419C244.505 5.62175 244.162 5.2793 243.74 5.2793C243.317 5.2793 242.975 5.62175 242.975 6.04419V21.6719C242.975 22.0943 243.317 22.4368 243.74 22.4368C244.162 22.4368 244.505 22.0943 244.505 21.6719V6.04419Z" fill="white"/>
<path d="M270.512 6.04419C270.512 5.62175 270.17 5.2793 269.747 5.2793C269.325 5.2793 268.982 5.62175 268.982 6.04419V21.6719C268.982 22.0943 269.325 22.4368 269.747 22.4368C270.17 22.4368 270.512 22.0943 270.512 21.6719V6.04419Z" fill="white"/>
<path d="M296.518 6.04419C296.518 5.62175 296.176 5.2793 295.753 5.2793C295.331 5.2793 294.988 5.62175 294.988 6.04419V21.6719C294.988 22.0943 295.331 22.4368 295.753 22.4368C296.176 22.4368 296.518 22.0943 296.518 21.6719V6.04419Z" fill="#CFD0D1"/>
<path d="M223.854 1.75464C223.854 1.3322 223.512 0.989746 223.089 0.989746C222.667 0.989746 222.324 1.3322 222.324 1.75464V25.9611C222.324 26.3836 222.667 26.726 223.089 26.726C223.512 26.726 223.854 26.3836 223.854 25.9611V1.75464Z" fill="white"/>
<path d="M249.86 1.75464C249.86 1.3322 249.517 0.989746 249.095 0.989746C248.673 0.989746 248.33 1.3322 248.33 1.75464V25.9611C248.33 26.3836 248.673 26.726 249.095 26.726C249.517 26.726 249.86 26.3836 249.86 25.9611V1.75464Z" fill="white"/>
<path d="M275.864 1.75464C275.864 1.3322 275.521 0.989746 275.099 0.989746C274.676 0.989746 274.334 1.3322 274.334 1.75464V25.9611C274.334 26.3836 274.676 26.726 275.099 26.726C275.521 26.726 275.864 26.3836 275.864 25.9611V1.75464Z" fill="#CFD0D1"/>
<path d="M301.874 1.75464C301.874 1.3322 301.531 0.989746 301.109 0.989746C300.686 0.989746 300.344 1.3322 300.344 1.75464V25.9611C300.344 26.3836 300.686 26.726 301.109 26.726C301.531 26.726 301.874 26.3836 301.874 25.9611V1.75464Z" fill="#CFD0D1"/>
<path d="M229.208 6.04419C229.208 5.62175 228.865 5.2793 228.443 5.2793C228.02 5.2793 227.678 5.62175 227.678 6.04419V21.6719C227.678 22.0943 228.02 22.4368 228.443 22.4368C228.865 22.4368 229.208 22.0943 229.208 21.6719V6.04419Z" fill="white"/>
<path d="M255.213 6.04419C255.213 5.62175 254.871 5.2793 254.448 5.2793C254.026 5.2793 253.683 5.62175 253.683 6.04419V21.6719C253.683 22.0943 254.026 22.4368 254.448 22.4368C254.871 22.4368 255.213 22.0943 255.213 21.6719V6.04419Z" fill="white"/>
<path d="M281.219 6.04419C281.219 5.62175 280.877 5.2793 280.454 5.2793C280.032 5.2793 279.689 5.62175 279.689 6.04419V21.6719C279.689 22.0943 280.032 22.4368 280.454 22.4368C280.877 22.4368 281.219 22.0943 281.219 21.6719V6.04419Z" fill="#CFD0D1"/>
<path d="M307.227 6.04419C307.227 5.62175 306.885 5.2793 306.462 5.2793C306.04 5.2793 305.697 5.62175 305.697 6.04419V21.6719C305.697 22.0943 306.04 22.4368 306.462 22.4368C306.885 22.4368 307.227 22.0943 307.227 21.6719V6.04419Z" fill="#CFD0D1"/>
<path d="M234.563 10.3335C234.563 9.91106 234.221 9.5686 233.798 9.5686C233.376 9.5686 233.033 9.91106 233.033 10.3335V17.3825C233.033 17.8049 233.376 18.1474 233.798 18.1474C234.221 18.1474 234.563 17.8049 234.563 17.3825V10.3335Z" fill="white"/>
<path d="M260.567 8.61768C260.567 8.19524 260.224 7.85278 259.802 7.85278C259.38 7.85278 259.037 8.19524 259.037 8.61768V19.956C259.037 20.3785 259.38 20.7209 259.802 20.7209C260.224 20.7209 260.567 20.3785 260.567 19.956V8.61768Z" fill="white"/>
<path d="M286.575 10.3335C286.575 9.91106 286.232 9.5686 285.81 9.5686C285.387 9.5686 285.045 9.91106 285.045 10.3335V17.3825C285.045 17.8049 285.387 18.1474 285.81 18.1474C286.232 18.1474 286.575 17.8049 286.575 17.3825V10.3335Z" fill="#CFD0D1"/>
<path d="M312.58 10.3335C312.58 9.91106 312.238 9.5686 311.816 9.5686C311.393 9.5686 311.051 9.91106 311.051 10.3335V17.3825C311.051 17.8049 311.393 18.1474 311.816 18.1474C312.238 18.1474 312.58 17.8049 312.58 17.3825V10.3335Z" fill="#CFD0D1"/>
<path d="M320.145 10.3335C320.145 9.91106 319.803 9.5686 319.38 9.5686C318.958 9.5686 318.615 9.91106 318.615 10.3335V17.3825C318.615 17.8049 318.958 18.1474 319.38 18.1474C319.803 18.1474 320.145 17.8049 320.145 17.3825V10.3335Z" fill="white"/>
<path d="M346.151 8.61768C346.151 8.19524 345.808 7.85278 345.386 7.85278C344.964 7.85278 344.621 8.19524 344.621 8.61768V19.956C344.621 20.3785 344.964 20.7209 345.386 20.7209C345.808 20.7209 346.151 20.3785 346.151 19.956V8.61768Z" fill="white"/>
<path d="M372.157 10.3335C372.157 9.91106 371.814 9.5686 371.392 9.5686C370.969 9.5686 370.627 9.91106 370.627 10.3335V17.3825C370.627 17.8049 370.969 18.1474 371.392 18.1474C371.814 18.1474 372.157 17.8049 372.157 17.3825V10.3335Z" fill="white"/>
<path d="M398.161 10.3335C398.161 9.91106 397.818 9.5686 397.396 9.5686C396.973 9.5686 396.631 9.91106 396.631 10.3335V17.3825C396.631 17.8049 396.973 18.1474 397.396 18.1474C397.818 18.1474 398.161 17.8049 398.161 17.3825V10.3335Z" fill="#CFD0D1"/>
<path d="M325.499 6.04419C325.499 5.62175 325.156 5.2793 324.734 5.2793C324.311 5.2793 323.969 5.62175 323.969 6.04419V21.6719C323.969 22.0943 324.311 22.4368 324.734 22.4368C325.156 22.4368 325.499 22.0943 325.499 21.6719V6.04419Z" fill="white"/>
<path d="M351.505 6.04419C351.505 5.62175 351.162 5.2793 350.74 5.2793C350.317 5.2793 349.975 5.62175 349.975 6.04419V21.6719C349.975 22.0943 350.317 22.4368 350.74 22.4368C351.162 22.4368 351.505 22.0943 351.505 21.6719V6.04419Z" fill="white"/>
<path d="M377.512 6.04419C377.512 5.62175 377.17 5.2793 376.747 5.2793C376.325 5.2793 375.982 5.62175 375.982 6.04419V21.6719C375.982 22.0943 376.325 22.4368 376.747 22.4368C377.17 22.4368 377.512 22.0943 377.512 21.6719V6.04419Z" fill="white"/>
<path d="M403.518 6.04419C403.518 5.62175 403.176 5.2793 402.753 5.2793C402.331 5.2793 401.988 5.62175 401.988 6.04419V21.6719C401.988 22.0943 402.331 22.4368 402.753 22.4368C403.176 22.4368 403.518 22.0943 403.518 21.6719V6.04419Z" fill="#CFD0D1"/>
<path d="M330.854 1.75464C330.854 1.3322 330.512 0.989746 330.089 0.989746C329.667 0.989746 329.324 1.3322 329.324 1.75464V25.9611C329.324 26.3836 329.667 26.726 330.089 26.726C330.512 26.726 330.854 26.3836 330.854 25.9611V1.75464Z" fill="white"/>
<path d="M356.86 1.75464C356.86 1.3322 356.517 0.989746 356.095 0.989746C355.673 0.989746 355.33 1.3322 355.33 1.75464V25.9611C355.33 26.3836 355.673 26.726 356.095 26.726C356.517 26.726 356.86 26.3836 356.86 25.9611V1.75464Z" fill="white"/>
<path d="M382.864 1.75464C382.864 1.3322 382.521 0.989746 382.099 0.989746C381.676 0.989746 381.334 1.3322 381.334 1.75464V25.9611C381.334 26.3836 381.676 26.726 382.099 26.726C382.521 26.726 382.864 26.3836 382.864 25.9611V1.75464Z" fill="#CFD0D1"/>
<path d="M408.874 1.75464C408.874 1.3322 408.531 0.989746 408.109 0.989746C407.686 0.989746 407.344 1.3322 407.344 1.75464V25.9611C407.344 26.3836 407.686 26.726 408.109 26.726C408.531 26.726 408.874 26.3836 408.874 25.9611V1.75464Z" fill="#CFD0D1"/>
<path d="M336.208 6.04419C336.208 5.62175 335.865 5.2793 335.443 5.2793C335.02 5.2793 334.678 5.62175 334.678 6.04419V21.6719C334.678 22.0943 335.02 22.4368 335.443 22.4368C335.865 22.4368 336.208 22.0943 336.208 21.6719V6.04419Z" fill="white"/>
<path d="M362.213 6.04419C362.213 5.62175 361.871 5.2793 361.448 5.2793C361.026 5.2793 360.683 5.62175 360.683 6.04419V21.6719C360.683 22.0943 361.026 22.4368 361.448 22.4368C361.871 22.4368 362.213 22.0943 362.213 21.6719V6.04419Z" fill="white"/>
<path d="M388.219 6.04419C388.219 5.62175 387.877 5.2793 387.454 5.2793C387.032 5.2793 386.689 5.62175 386.689 6.04419V21.6719C386.689 22.0943 387.032 22.4368 387.454 22.4368C387.877 22.4368 388.219 22.0943 388.219 21.6719V6.04419Z" fill="#CFD0D1"/>
<path d="M414.227 6.04419C414.227 5.62175 413.885 5.2793 413.462 5.2793C413.04 5.2793 412.697 5.62175 412.697 6.04419V21.6719C412.697 22.0943 413.04 22.4368 413.462 22.4368C413.885 22.4368 414.227 22.0943 414.227 21.6719V6.04419Z" fill="#CFD0D1"/>
<path d="M341.563 10.3335C341.563 9.91106 341.221 9.5686 340.798 9.5686C340.376 9.5686 340.033 9.91106 340.033 10.3335V17.3825C340.033 17.8049 340.376 18.1474 340.798 18.1474C341.221 18.1474 341.563 17.8049 341.563 17.3825V10.3335Z" fill="white"/>
<path d="M367.567 8.61768C367.567 8.19524 367.224 7.85278 366.802 7.85278C366.38 7.85278 366.037 8.19524 366.037 8.61768V19.956C366.037 20.3785 366.38 20.7209 366.802 20.7209C367.224 20.7209 367.567 20.3785 367.567 19.956V8.61768Z" fill="white"/>
<path d="M393.575 10.3335C393.575 9.91106 393.232 9.5686 392.81 9.5686C392.387 9.5686 392.045 9.91106 392.045 10.3335V17.3825C392.045 17.8049 392.387 18.1474 392.81 18.1474C393.232 18.1474 393.575 17.8049 393.575 17.3825V10.3335Z" fill="#CFD0D1"/>
<path d="M419.58 10.3335C419.58 9.91106 419.238 9.5686 418.816 9.5686C418.393 9.5686 418.051 9.91106 418.051 10.3335V17.3825C418.051 17.8049 418.393 18.1474 418.816 18.1474C419.238 18.1474 419.58 17.8049 419.58 17.3825V10.3335Z" fill="#CFD0D1"/>
<defs>
<clipPath id="clip0_469_706">
<rect width="116" height="28" fill="white"/>
</clipPath>
</defs>
</svg>
