<svg width="563" height="116" viewBox="0 0 563 116" fill="none" xmlns="http://www.w3.org/2000/svg">
<g opacity="0.3">
<path d="M2.0163 115.607H0V122.314H2.0163V115.607Z" fill="#6D8E43"/>
<path d="M562.235 109.882H560.219V122.295H562.235V109.882Z" fill="#6D8E43"/>
<path d="M555.501 102.986H553.484V122.314H555.501V102.986Z" fill="#6D8E43"/>
<path d="M548.633 112.792H546.617V122.295H548.633V112.792Z" fill="#6D8E43"/>
<path d="M541.768 96.6948H539.752V122.295H541.768V96.6948Z" fill="#6D8E43"/>
<path d="M534.902 87.0403H532.885V122.314H534.902V87.0403Z" fill="#6D8E43"/>
<path d="M528.186 82.4304H526.17V122.295H528.186V82.4304Z" fill="#6D8E43"/>
<path d="M521.319 98.6785H519.303V122.295H521.319V98.6785Z" fill="#6D8E43"/>
<path d="M514.453 88.5708H512.436V122.295H514.453V88.5708Z" fill="#6D8E43"/>
<path d="M507.586 75.2322H505.57V122.314H507.586V75.2322Z" fill="#6D8E43"/>
<path d="M500.852 66.2202H498.836V122.314H500.852V66.2202Z" fill="#6D8E43"/>
<path d="M493.985 37.6162H491.969V122.314H493.985V37.6162Z" fill="#6D8E43"/>
<path d="M487.12 15.2656H485.104V122.314H487.12V15.2656Z" fill="#6D8E43"/>
<path d="M480.252 68.9785H478.236V122.295H480.252V68.9785Z" fill="#6D8E43"/>
<path d="M473.537 98.8674H471.521V122.295H473.537V98.8674Z" fill="#6D8E43"/>
<path d="M466.67 75.459H464.654V122.314H466.67V75.459Z" fill="#6D8E43"/>
<path d="M459.803 85.321H457.787V122.314H459.803V85.321Z" fill="#6D8E43"/>
<path d="M452.938 64.5388H450.922V122.314H452.938V64.5388Z" fill="#6D8E43"/>
<path d="M446.204 98.8674H444.188V122.295H446.204V98.8674Z" fill="#6D8E43"/>
<path d="M439.336 66.5981H437.32V121.501H439.336V66.5981Z" fill="#6D8E43"/>
<path d="M432.469 53.9963H430.453V121.52H432.469V53.9963Z" fill="#6D8E43"/>
<path d="M425.605 48.6685H423.588V121.501H425.605V48.6685Z" fill="#6D8E43"/>
<path d="M418.737 73.7019H416.721V121.501H418.737V73.7019Z" fill="#6D8E43"/>
<path d="M412.022 33.7241H410.006V121.501H412.022V33.7241Z" fill="#6D8E43"/>
<path d="M405.156 51.0491H403.139V121.501H405.156V51.0491Z" fill="#6D8E43"/>
<path d="M398.289 77.7827H396.273V122.295H398.289V77.7827Z" fill="#6D8E43"/>
<path d="M391.422 66.1257H389.406V122.295H391.422V66.1257Z" fill="#6D8E43"/>
<path d="M384.689 99.1321H382.672V122.295H384.689V99.1321Z" fill="#6D8E43"/>
<path d="M377.823 98.6218H375.807V122.314H377.823V98.6218Z" fill="#6D8E43"/>
<path d="M370.955 99.3586H368.939V122.295H370.955V99.3586Z" fill="#6D8E43"/>
<path d="M357.373 99.8877H355.357V122.314H357.373V99.8877Z" fill="#6D8E43"/>
<path d="M350.506 89.2698H348.49V122.295H350.506V89.2698Z" fill="#6D8E43"/>
<path d="M343.639 76.4226H341.623V122.314H343.639V76.4226Z" fill="#6D8E43"/>
<path d="M336.775 48.9519H334.758V122.295H336.775V48.9519Z" fill="#6D8E43"/>
<path d="M330.039 35.9158H328.023V122.295H330.039V35.9158Z" fill="#6D8E43"/>
<path d="M323.172 55.5645H321.156V122.314H323.172V55.5645Z" fill="#6D8E43"/>
<path d="M316.306 69.8098H314.289V122.295H316.306V69.8098Z" fill="#6D8E43"/>
<path d="M309.44 84.0554H307.424V122.295H309.44V84.0554Z" fill="#6D8E43"/>
<path d="M302.725 94.6733H300.709V122.314H302.725V94.6733Z" fill="#6D8E43"/>
<path d="M295.86 104.913H293.844V122.295H295.86V104.913Z" fill="#6D8E43"/>
<path d="M288.993 81.8638H286.977V122.295H288.993V81.8638Z" fill="#6D8E43"/>
<path d="M282.125 111.45H280.109V122.295H282.125V111.45Z" fill="#6D8E43"/>
<path d="M275.259 99.3777H273.242V122.314H275.259V99.3777Z" fill="#6D8E43"/>
<path d="M268.526 84.0742H266.51V122.295H268.526V84.0742Z" fill="#6D8E43"/>
<path d="M261.659 69.5266H259.643V122.295H261.659V69.5266Z" fill="#6D8E43"/>
<path d="M254.792 43.8887H252.775V122.295H254.792V43.8887Z" fill="#6D8E43"/>
<path d="M247.924 0H245.908V122.295H247.924V0Z" fill="#6D8E43"/>
<path d="M241.209 54.2419H239.193V122.295H241.209V54.2419Z" fill="#6D8E43"/>
<path d="M234.343 73.6453H232.326V122.295H234.343V73.6453Z" fill="#6D8E43"/>
<path d="M227.477 107.502H225.461V122.295H227.477V107.502Z" fill="#6D8E43"/>
<path d="M220.61 88.4385H218.594V122.295H220.61V88.4385Z" fill="#6D8E43"/>
<path d="M213.875 65.0867H211.859V122.295H213.875V65.0867Z" fill="#6D8E43"/>
<path d="M207.01 50.2935H204.994V122.295H207.01V50.2935Z" fill="#6D8E43"/>
<path d="M200.143 110.789H198.127V122.295H200.143V110.789Z" fill="#6D8E43"/>
<path d="M193.276 98.1306H191.26V122.295H193.276V98.1306Z" fill="#6D8E43"/>
<path d="M186.563 62.8762H184.547V122.295H186.563V62.8762Z" fill="#6D8E43"/>
<path d="M179.696 78.4062H177.68V122.295H179.696V78.4062Z" fill="#6D8E43"/>
<path d="M172.829 41.4326H170.812V122.314H172.829V41.4326Z" fill="#6D8E43"/>
<path d="M165.962 27.6216H163.945V122.314H165.962V27.6216Z" fill="#6D8E43"/>
<path d="M159.229 52.5227H157.213V122.295H159.229V52.5227Z" fill="#6D8E43"/>
<path d="M152.362 97.3938H150.346V122.295H152.362V97.3938Z" fill="#6D8E43"/>
<path d="M145.496 78.6519H143.479V122.295H145.496V78.6519Z" fill="#6D8E43"/>
<path d="M138.627 64.3499H136.611V122.295H138.627V64.3499Z" fill="#6D8E43"/>
<path d="M131.76 101.097H129.744V122.295H131.76V101.097Z" fill="#6D8E43"/>
<path d="M125.046 93.6907H123.029V122.295H125.046V93.6907Z" fill="#6D8E43"/>
<path d="M118.18 73.9663H116.164V122.295H118.18V73.9663Z" fill="#6D8E43"/>
<path d="M111.313 74.4954H109.297V122.295H111.313V74.4954Z" fill="#6D8E43"/>
<path d="M104.446 78.5952H102.43V122.295H104.446V78.5952Z" fill="#6D8E43"/>
<path d="M97.7133 98.074H95.6973V122.295H97.7133V98.074Z" fill="#6D8E43"/>
<path d="M90.846 86.2847H88.83V122.295H90.846V86.2847Z" fill="#6D8E43"/>
<path d="M83.9794 44.72H81.9631V122.314H83.9794V44.72Z" fill="#6D8E43"/>
<path d="M77.112 72.3794H75.0957V122.314H77.112V72.3794Z" fill="#6D8E43"/>
<path d="M70.3972 83.3374H68.3809V122.295H70.3972V83.3374Z" fill="#6D8E43"/>
<path d="M63.5319 96.7703H61.5156V122.314H63.5319V96.7703Z" fill="#6D8E43"/>
<path d="M49.7976 113.018H47.7812V122.295H49.7976V113.018Z" fill="#6D8E43"/>
<path d="M43.0651 104.328H41.0488V122.295H43.0651V104.328Z" fill="#6D8E43"/>
<path d="M36.1976 99.8877H34.1814V122.295H36.1976V99.8877Z" fill="#6D8E43"/>
<path d="M29.3307 92.3494H27.3145V122.295H29.3307V92.3494Z" fill="#6D8E43"/>
<path d="M22.4636 104.328H20.4473V122.295H22.4636V104.328Z" fill="#6D8E43"/>
<path d="M15.7506 76.3091H13.7344V122.295H15.7506V76.3091Z" fill="#6D8E43"/>
<path d="M8.88349 110.713H6.86719V122.314H8.88349V110.713Z" fill="#6D8E43"/>
</g>
</svg>
