<svg width="238" height="10" viewBox="0 0 238 10" fill="none" xmlns="http://www.w3.org/2000/svg">
<path d="M84.4777 6.16704C91.8893 6.54544 99.3014 6.90434 106.703 7.30764C117.145 7.87804 127.569 8.49264 137.964 9.19884C138.665 9.24554 139.638 9.24544 139.614 9.54094C139.58 9.85304 138.565 9.77124 137.899 9.75604C125.486 9.45914 113.071 9.25164 100.674 8.62824C91.6505 8.17404 82.5796 7.86114 73.5274 7.50124C71.2928 7.41114 69.0854 7.28824 66.9147 7.08794C65.3393 6.94024 64.0301 6.66184 63.9203 6.08674C63.8191 5.52299 64.9575 5.21934 66.4609 5.06087C70.8747 4.59165 75.5859 4.53982 80.228 4.43893C93.4874 4.15735 106.812 4.08396 120.161 4.09772C136.282 4.11598 152.402 4.15101 168.515 4.12162C185.251 4.08966 201.995 4.05791 218.651 3.69732C211.403 3.46229 204.167 3.0739 196.904 3.07038C195.475 3.06853 194.045 3.06667 192.616 3.03131C177.319 2.65753 162.044 2.51606 146.767 2.38296C130.544 2.23946 114.328 2.18551 98.1285 2.1794C81.4464 2.17068 64.7879 2.27142 48.1132 2.31594C36.9295 2.34316 25.7287 2.35323 14.5452 2.37207C11.1332 2.3781 7.72911 2.42062 4.31763 2.40153C2.65136 2.39148 0.280627 2.50225 0.0170896 1.75046C-0.221485 1.05789 2.092 1.14973 3.57538 1.10253C17.8822 0.657691 32.3053 0.500391 46.7116 0.311991C63.8904 0.0862211 81.1097 0.00385131 98.3448 3.13077e-05C110.65 -0.00160869 122.972 0.0613614 135.302 0.146861C156.384 0.292181 177.473 0.540981 198.573 1.03586C209.084 1.2838 219.595 1.55129 230.026 2.21081C231.515 2.3062 232.994 2.45722 234.437 2.62419C236.09 2.81829 237.248 3.18546 237.288 3.77014C237.327 4.36319 236.109 4.67062 234.544 4.83607C231.713 5.13745 228.694 5.21948 225.711 5.28834C214.829 5.5459 203.898 5.63194 192.942 5.66994C180.013 5.71603 167.092 5.77628 154.162 5.80561C144.882 5.82873 135.586 5.7984 126.305 5.81593C112.35 5.84143 98.3948 5.88926 84.4863 6.17284L84.4777 6.16704Z" fill="#6F8F7D"/>
</svg>
