<svg width="99" height="99" viewBox="0 0 99 99" fill="none" xmlns="http://www.w3.org/2000/svg">
<path d="M41.2006 0.420112L49.3116 44.2776L54.6745 -2.72575e-06L50.6522 44.4194L67.7622 3.23069L51.9048 44.9177L79.4929 9.87256L52.9765 45.7354L88.9966 19.4331L53.7878 46.812L95.5686 31.2031L54.2787 48.0675L98.7212 44.3098L54.4125 49.4089L98.2208 57.7809L54.1794 50.7367L94.1046 70.6177L53.5968 51.9523L86.6777 81.8677L52.7079 52.9658L76.4909 90.6969L51.5785 53.7017L64.2998 96.4503L50.2924 54.1057L51.0086 98.7012L48.945 54.1477L37.6028 97.2827L47.6363 53.8247L25.077 92.2999L46.4632 53.1604L14.36 84.1226L45.5128 52.2044L6.24664 73.357L44.8556 51.0274L1.33863 60.8018L44.5403 49.7167L-5.21783e-06 47.3879L44.5904 48.3696L2.33003 34.1103L45.002 47.0859L8.15588 21.9537L45.7447 45.9609L17.0456 11.8197L46.7634 45.078L28.3397 4.45987L47.9825 44.5027L41.2006 0.420112Z" fill="#6F8F7D" fill-opacity="0.4"/>
</svg>
